<svg xmlns="http://www.w3.org/2000/svg" viewBox="0 0 292.23 295.39"><defs><style>.a{fill:#0a2463;}</style></defs><title>steam</title><path class="a" d="M255.75,108.3c-76.89,0-139.88,59.83-145.87,135.86l78.46,32.72a41,41,0,0,1,23.31-7.26q1.17,0,2.31.06l34.89-51v-.72c0-30.71,24.76-55.7,55.2-55.7s55.19,25,55.19,55.7-24.76,55.7-55.19,55.7l-1.26,0L253,309.44c0,.66.05,1.32.05,2A41.4,41.4,0,0,1,171,319.65l-56.1-23.4c17.37,62,73.81,107.45,140.82,107.45,80.83,0,146.37-66.14,146.37-147.7S336.58,108.3,255.75,108.3" transform="translate(-109.88 -108.3)"/><path class="a" d="M201.61,332.41l-18-7.49a30.94,30.94,0,0,0,56.68-1.53,31.43,31.43,0,0,0,.05-24,31,31,0,0,0-16.79-17,30.72,30.72,0,0,0-22.92-.35l18.57,7.75A23.17,23.17,0,0,1,231.55,320a22.82,22.82,0,0,1-29.94,12.44" transform="translate(-109.88 -108.3)"/><path class="a" d="M276.47,217.86a27.63,27.63,0,1,1,27.64,27.89,27.75,27.75,0,0,1-27.64-27.89m64.35.07A36.78,36.78,0,1,0,304,255a37,37,0,0,0,36.78-37.11" transform="translate(-109.88 -108.3)"/></svg>